<svg width="69" height="68" viewBox="0 0 69 68" fill="none" xmlns="http://www.w3.org/2000/svg">
<path d="M58.283 1.98298C58.5368 1.65434 58.863 1.38868 59.2362 1.20665C59.6095 1.02462 60.0197 0.931131 60.4349 0.933453C60.8501 0.935775 61.2593 1.03384 61.6304 1.22004C62.0016 1.40623 62.3248 1.67552 62.575 2.00698C64.24 4.21798 65.875 6.44798 67.537 8.66398C67.8355 9.01749 67.9927 9.46895 67.9783 9.93144C67.9639 10.3939 67.7789 10.8347 67.459 11.169C66.759 11.915 65.643 11.669 64.732 11.742C64.5557 14.0896 63.8384 16.3646 62.6361 18.3887C61.4338 20.4128 59.7792 22.1311 57.802 23.409C57.5584 23.5529 57.2727 23.6089 56.9928 23.5676C56.7129 23.5263 56.4556 23.3901 56.264 23.182C54.937 22.168 53.578 21.196 52.264 20.163C52.1313 20.0774 52.02 19.9626 51.9385 19.8274C51.8569 19.6923 51.8074 19.5402 51.7936 19.383C51.7798 19.2257 51.8021 19.0674 51.8589 18.9201C51.9156 18.7728 52.0052 18.6404 52.121 18.533C52.9459 18.0272 53.719 17.4414 54.429 16.784C55.0552 16.1062 55.5391 15.3097 55.8521 14.4416C56.165 13.5735 56.3007 12.6514 56.251 11.73C55.308 11.665 54.151 11.93 53.416 11.171C53.0905 10.8392 52.8999 10.3982 52.8815 9.93376C52.863 9.46932 53.0179 9.01459 53.316 8.65798C54.967 6.43398 56.611 4.19598 58.281 1.98198M59.946 3.38198C58.403 5.40598 56.878 7.44998 55.4 9.52198C56.292 9.67598 57.668 9.18398 58.162 10.206C58.5505 11.8956 58.4391 13.6618 57.8414 15.2893C57.2438 16.9168 56.1857 18.3353 54.796 19.372C55.601 19.964 56.364 20.621 57.215 21.15C58.8156 20.0112 60.1319 18.5183 61.0614 16.7877C61.9909 15.0571 62.5085 13.1353 62.574 11.172C62.617 10.626 62.588 9.85598 63.233 9.64998C63.9641 9.54581 64.7026 9.50232 65.441 9.51998C63.965 7.45798 62.441 5.42498 60.911 3.40098C60.8688 3.30989 60.8019 3.23248 60.7179 3.17755C60.6338 3.12263 60.5361 3.0924 60.4357 3.09032C60.3354 3.08823 60.2364 3.11437 60.1502 3.16576C60.064 3.21715 59.9939 3.29172 59.948 3.38098L59.946 3.38198Z" fill="#CB3C40"/>
<path d="M29.616 6.82095C30.3194 6.11446 31.2056 5.61766 32.1753 5.38613C33.1449 5.1546 34.1599 5.19748 35.1067 5.50998C36.0534 5.82247 36.8945 6.39224 37.5358 7.15554C38.1771 7.91884 38.5934 8.84554 38.738 9.83195C38.919 11.3099 38.77 12.8049 38.838 14.2889C40.219 13.6669 41.562 12.7319 43.146 12.8049C44.4814 12.7965 45.7719 13.2866 46.765 14.1793C47.7582 15.0721 48.3826 16.3032 48.516 17.6319C48.621 19.9779 48.535 22.332 48.562 24.681C50.9 24.705 53.238 24.6379 55.575 24.7219C57.384 24.8505 59.0864 25.6253 60.3715 26.9049C61.6566 28.1845 62.4387 29.8835 62.575 31.6919C62.67 34.0299 62.586 36.3699 62.618 38.7079C63.9516 38.7331 65.2305 39.2429 66.2157 40.142C67.201 41.0412 67.8253 42.2682 67.972 43.5939C68.0621 45.4634 68.0534 47.3364 67.946 49.2049C67.7605 50.4944 67.1225 51.6759 66.1461 52.5384C65.1697 53.4008 63.9185 53.888 62.616 53.9129C62.567 56.34 62.689 58.7719 62.546 61.1939C62.3384 63.0406 61.4599 64.7467 60.0773 65.9883C58.6947 67.2299 56.9042 67.9205 55.046 67.9289C39.906 67.9609 24.768 67.9289 9.63 67.9449C8.41996 68.0131 7.2075 67.8641 6.05 67.505C4.78177 67.0567 3.65521 66.28 2.78539 65.2539C1.91556 64.2279 1.33362 62.9894 1.099 61.6649C0.96779 60.1544 0.92705 58.6374 0.976995 57.1219C1.028 48.827 0.941995 40.533 0.992995 32.2379C0.995379 30.8585 1.37514 29.506 2.09114 28.327C2.80715 27.1479 3.8321 26.1872 5.05499 25.549C6.37801 24.9086 7.83697 24.5997 9.30599 24.6489C16.046 18.6759 22.852 12.7759 29.611 6.82495M31.435 8.11995C25.135 13.6249 18.83 19.1199 12.568 24.6659C14.206 24.7039 15.844 24.7199 17.481 24.6929C18.3145 24.5691 19.1112 24.2658 19.816 23.8039C25.416 21.0119 31.005 18.1959 36.621 15.4339C36.7255 13.5938 36.7001 11.7485 36.545 9.91195C36.4231 9.38552 36.17 8.89845 35.8094 8.496C35.4489 8.09355 34.9924 7.78877 34.4825 7.60998C33.9725 7.43119 33.4257 7.38419 32.8927 7.47334C32.3598 7.5625 31.859 7.78493 31.435 8.11995ZM40.545 15.8769C34.745 18.8279 28.875 21.6339 23.102 24.6309C30.859 24.7499 38.621 24.6609 46.378 24.6819C46.346 22.4329 46.437 20.1819 46.346 17.9389C46.296 17.1303 45.9364 16.3719 45.3421 15.8213C44.7477 15.2707 43.9641 14.9701 43.154 14.9819C42.2286 15.0813 41.3364 15.3872 40.545 15.8769ZM3.33299 30.8349C3.14978 31.9301 3.08641 33.042 3.14399 34.1509C3.15999 42.8939 3.136 51.6399 3.152 60.3829C3.16548 61.4883 3.5122 62.5638 4.14682 63.4689C4.78145 64.374 5.67443 65.0666 6.70899 65.4559C7.74958 65.7294 8.82707 65.8354 9.901 65.77C24.9523 65.762 40.0027 65.7603 55.052 65.7649C56.3873 65.761 57.6734 65.2605 58.6601 64.3607C59.6467 63.4609 60.2634 62.2263 60.39 60.8969C60.482 58.5649 60.404 56.2239 60.431 53.8889C56.731 53.8669 53.036 53.908 49.339 53.865C48.4758 53.8789 47.6259 53.6509 46.8856 53.2068C46.1452 52.7626 45.544 52.1201 45.15 51.352C44.338 49.4112 44.0308 47.2965 44.257 45.2049C44.346 43.3749 44.673 41.3639 46.068 40.0459C46.499 39.6223 47.011 39.2898 47.5733 39.0684C48.1357 38.8469 48.7368 38.741 49.341 38.7569C53.033 38.6839 56.727 38.7519 60.419 38.7219C60.408 36.4679 60.478 34.2139 60.411 31.9629C60.3639 31.0112 60.0659 30.0888 59.5471 29.2895C59.0282 28.4902 58.3071 27.8424 57.457 27.4119C56.043 26.688 54.406 26.8709 52.873 26.8469C38.092 26.8709 23.311 26.8389 8.52999 26.8629C7.34909 26.8678 6.20209 27.2583 5.26345 27.9749C4.32482 28.6915 3.64591 29.6951 3.33 30.8329M48.638 41.0159C47.233 41.3109 46.668 42.8479 46.525 44.1159C46.2393 46.0522 46.3554 48.0265 46.866 49.9159C47.0303 50.4393 47.3594 50.8955 47.8041 51.2164C48.2489 51.5374 48.7856 51.7059 49.334 51.6969C53.672 51.7379 58.012 51.6889 62.353 51.7109C62.9174 51.7495 63.4823 51.6419 63.9931 51.3987C64.5038 51.1554 64.9433 50.7845 65.269 50.3219C66.101 49.1599 65.793 47.6489 65.858 46.3109C65.812 44.8059 66.136 42.9979 64.896 41.8569C63.834 40.6839 62.134 40.9059 60.712 40.9059C56.69 40.9969 52.649 40.7589 48.638 41.0159Z" fill="#1771B7"/>
<path d="M51.633 42.164C52.4913 41.906 53.4085 41.9212 54.2578 42.2074C55.107 42.4937 55.8462 43.0369 56.3732 43.7618C56.9001 44.4867 57.1887 45.3575 57.1989 46.2537C57.2091 47.1498 56.9406 48.027 56.4303 48.7637C55.9201 49.5005 55.1934 50.0604 54.3509 50.366C53.5084 50.6716 52.5918 50.7077 51.7278 50.4694C50.8639 50.2311 50.0954 49.7301 49.5288 49.0358C48.9621 48.3414 48.6253 47.4881 48.565 46.594C48.5033 45.6181 48.7726 44.6498 49.3293 43.8459C49.8861 43.042 50.6977 42.4494 51.633 42.164ZM52.165 44.264C51.7919 44.3982 51.4628 44.6322 51.2134 44.9404C50.964 45.2486 50.8038 45.6193 50.7503 46.0122C50.6968 46.405 50.752 46.805 50.9099 47.1687C51.0678 47.5324 51.3224 47.8459 51.646 48.075C51.9359 48.2778 52.2715 48.4056 52.6228 48.447C52.9741 48.4884 53.3303 48.4421 53.6593 48.3123C53.9884 48.1824 54.2802 47.973 54.5085 47.7028C54.7369 47.4326 54.8948 47.1101 54.968 46.764C55.0443 46.3916 55.0214 46.0057 54.9016 45.6449C54.7818 45.2841 54.5694 44.9612 54.2856 44.7083C54.0017 44.4555 53.6564 44.2816 53.2843 44.2041C52.9121 44.1267 52.5262 44.1484 52.165 44.267V44.264Z" fill="#1771B7"/>
<g opacity="0.3">
<path d="M40.547 15.872C41.3384 15.3823 42.2296 15.0764 43.155 14.977C43.9651 14.9652 44.7487 15.2658 45.343 15.8164C45.9374 16.367 46.2969 17.1253 46.347 17.934C46.439 20.18 46.347 22.429 46.379 24.677C38.622 24.655 30.86 24.745 23.103 24.626C28.877 21.629 34.747 18.824 40.547 15.872Z" fill="#959595"/>
<path d="M3.33398 30.834C3.6499 29.6961 4.3288 28.6925 5.26744 27.9759C6.20607 27.2593 7.35307 26.8689 8.53398 26.864C23.315 26.84 38.096 26.872 52.877 26.848C54.409 26.872 56.047 26.689 57.461 27.413C58.3111 27.8434 59.0322 28.4912 59.551 29.2905C60.0699 30.0898 60.3679 31.0122 60.415 31.964C60.483 34.215 60.415 36.469 60.423 38.723C56.731 38.753 53.037 38.685 49.345 38.758C48.7408 38.742 48.1396 38.8479 47.5773 39.0694C47.015 39.2909 46.503 39.6233 46.072 40.047C44.677 41.366 44.35 43.377 44.261 45.206C44.0347 47.2963 44.3412 49.41 45.152 51.35C45.546 52.1181 46.1472 52.7607 46.8875 53.2048C47.6279 53.6489 48.4778 53.8769 49.341 53.863C53.041 53.906 56.736 53.863 60.433 53.887C60.406 56.222 60.484 58.563 60.392 60.895C60.2654 62.2243 59.6487 63.4589 58.6621 64.3587C57.6754 65.2585 56.3893 65.759 55.054 65.763C40.0053 65.7683 24.955 65.77 9.90298 65.768C8.82906 65.8334 7.75157 65.7274 6.71098 65.454C5.67635 65.065 4.78316 64.3729 4.14819 63.4682C3.51322 62.5635 3.16602 61.4882 3.15198 60.383C3.13598 51.64 3.15998 42.894 3.14398 34.151C3.08665 33.0417 3.15036 31.9294 3.33398 30.834Z" fill="#959595"/>
<path d="M52.167 44.266C52.5282 44.1479 52.9142 44.1267 53.2862 44.2046C53.6582 44.2824 54.0033 44.4567 54.2868 44.7098C54.5703 44.963 54.7824 45.2861 54.9018 45.647C55.0211 46.0079 55.0436 46.3937 54.967 46.766C54.8938 47.1121 54.7359 47.4347 54.5075 47.7049C54.2792 47.975 53.9874 48.1844 53.6583 48.3143C53.3293 48.4441 52.9731 48.4905 52.6218 48.449C52.2705 48.4076 51.9349 48.2798 51.645 48.077C51.3215 47.8476 51.067 47.534 50.9093 47.1701C50.7516 46.8063 50.6967 46.4061 50.7505 46.0132C50.8044 45.6203 50.9649 45.2497 51.2146 44.9417C51.4643 44.6336 51.7937 44.3999 52.167 44.266Z" fill="#959595"/>
</g>
</svg>
