<svg width="30" height="31" viewBox="0 0 30 31" fill="none" xmlns="http://www.w3.org/2000/svg">
<path d="M24.792 20.084C24.0437 20.0843 23.3052 20.2535 22.6315 20.579C21.9577 20.9045 21.3662 21.378 20.901 21.964L10.14 16.477C10.3876 15.6076 10.3876 14.6864 10.14 13.817L20.901 8.32803C21.6739 9.30446 22.7821 9.95881 24.0104 10.164C25.2387 10.3692 26.4994 10.1107 27.5478 9.43856C28.5962 8.76643 29.3573 7.72869 29.6835 6.52685C30.0097 5.32501 29.8776 4.04483 29.313 2.9349C28.7483 1.82497 27.7913 0.964492 26.6278 0.520552C25.4642 0.0766117 24.1773 0.0808899 23.0168 0.532556C21.8562 0.984222 20.905 1.85104 20.3477 2.9647C19.7904 4.07836 19.6668 5.35939 20.001 6.55903L9.23698 12.049C8.59387 11.2405 7.7152 10.6519 6.72272 10.365C5.73025 10.078 4.67309 10.1068 3.69771 10.4474C2.72234 10.788 1.87704 11.4236 1.27892 12.266C0.680812 13.1083 0.359497 14.1159 0.359497 15.149C0.359497 16.1822 0.680812 17.1897 1.27892 18.0321C1.87704 18.8745 2.72234 19.51 3.69771 19.8506C4.67309 20.1912 5.73025 20.22 6.72272 19.9331C7.7152 19.6461 8.59387 19.0576 9.23698 18.249L19.998 23.737C19.7202 24.7411 19.7645 25.807 20.1246 26.7845C20.4848 27.762 21.1425 28.6019 22.0053 29.1858C22.868 29.7697 23.8922 30.0681 24.9336 30.0391C25.9749 30.0101 26.9809 29.655 27.8097 29.0239C28.6386 28.3929 29.2485 27.5176 29.5536 26.5215C29.8587 25.5255 29.8435 24.4588 29.5102 23.4718C29.177 22.4848 28.5424 21.6272 27.6959 21.02C26.8494 20.4128 25.8337 20.0864 24.792 20.087V20.084ZM24.792 2.23503C25.3841 2.23503 25.963 2.41063 26.4554 2.73961C26.9477 3.0686 27.3315 3.5362 27.5581 4.08328C27.7847 4.63036 27.844 5.23235 27.7285 5.81313C27.6129 6.39391 27.3278 6.92739 26.9091 7.34611C26.4903 7.76483 25.9569 8.04998 25.3761 8.1655C24.7953 8.28103 24.1933 8.22174 23.6462 7.99513C23.0991 7.76852 22.6315 7.38477 22.3026 6.89241C21.9736 6.40005 21.798 5.82119 21.798 5.22903C21.7996 4.43546 22.1155 3.67485 22.6767 3.11371C23.2378 2.55257 23.9984 2.23662 24.792 2.23503ZM5.34598 18.14C4.75366 18.1402 4.17458 17.9647 3.68202 17.6357C3.18947 17.3067 2.80556 16.839 2.57889 16.2918C2.35222 15.7445 2.29296 15.1424 2.40861 14.5614C2.52427 13.9805 2.80964 13.4469 3.22861 13.0282C3.64759 12.6096 4.18135 12.3245 4.76236 12.2093C5.34336 12.094 5.9455 12.1537 6.49259 12.3807C7.03967 12.6077 7.50712 12.992 7.83579 13.4847C8.16446 13.9775 8.33958 14.5567 8.33898 15.149C8.33661 15.9419 8.02045 16.7016 7.45961 17.2621C6.89877 17.8225 6.13886 18.1382 5.34598 18.14ZM24.792 28.057C24.1998 28.057 23.621 27.8814 23.1286 27.5525C22.6362 27.2235 22.2525 26.7559 22.0259 26.2088C21.7993 25.6617 21.74 25.0597 21.8555 24.4789C21.971 23.8982 22.2562 23.3647 22.6749 22.946C23.0936 22.5272 23.6271 22.2421 24.2079 22.1266C24.7887 22.011 25.3907 22.0703 25.9377 22.2969C26.4848 22.5235 26.9524 22.9073 27.2814 23.3997C27.6104 23.892 27.786 24.4709 27.786 25.063C27.7847 25.8568 27.4688 26.6176 26.9077 27.179C26.3465 27.7404 25.5857 28.0554 24.792 28.057Z" fill="#959595"/>
</svg>
