<svg width="36" height="36" viewBox="0 0 36 36" fill="none" xmlns="http://www.w3.org/2000/svg">
<path d="M29.48 0.0119629C31.2039 0.0119629 32.8572 0.696782 34.0762 1.91577C35.2952 3.13476 35.98 4.78806 35.98 6.51196V12.512C35.98 12.9098 35.822 13.2913 35.5407 13.5726C35.2594 13.8539 34.8778 14.012 34.48 14.012C34.0822 14.012 33.7007 13.8539 33.4194 13.5726C33.138 13.2913 32.98 12.9098 32.98 12.512V6.51196C32.98 5.5837 32.6113 4.69347 31.9549 4.03709C31.2985 3.38071 30.4083 3.01196 29.48 3.01196H23.48C23.0822 3.01196 22.7007 2.85393 22.4194 2.57262C22.138 2.29132 21.98 1.90979 21.98 1.51196C21.98 1.11414 22.138 0.732607 22.4194 0.451303C22.7007 0.169998 23.0822 0.0119629 23.48 0.0119629H29.48Z" fill="#959595"/>
<path d="M6.5 0.0119629C4.77609 0.0119629 3.12279 0.696782 1.90381 1.91577C0.684819 3.13476 0 4.78806 0 6.51196V12.512C0 12.9098 0.158035 13.2913 0.43934 13.5726C0.720644 13.8539 1.10218 14.012 1.5 14.012C1.89782 14.012 2.27936 13.8539 2.56066 13.5726C2.84196 13.2913 3 12.9098 3 12.512V6.51196C3 5.5837 3.36875 4.69347 4.02513 4.03709C4.6815 3.38071 5.57174 3.01196 6.5 3.01196H12.5C12.8978 3.01196 13.2794 2.85393 13.5607 2.57262C13.842 2.29132 14 1.90979 14 1.51196C14 1.11414 13.842 0.732607 13.5607 0.451303C13.2794 0.169998 12.8978 0.0119629 12.5 0.0119629H6.5Z" fill="#959595"/>
<path d="M29.48 35.9871C31.2039 35.9871 32.8572 35.3022 34.0762 34.0833C35.2952 32.8643 35.98 31.211 35.98 29.4871V23.4871C35.98 23.0892 35.822 22.7077 35.5407 22.4264C35.2594 22.1451 34.8778 21.9871 34.48 21.9871C34.0822 21.9871 33.7007 22.1451 33.4194 22.4264C33.138 22.7077 32.98 23.0892 32.98 23.4871V29.4871C32.98 30.4153 32.6113 31.3056 31.9549 31.9619C31.2985 32.6183 30.4083 32.9871 29.48 32.9871H23.48C23.0822 32.9871 22.7007 33.1451 22.4194 33.4264C22.138 33.7077 21.98 34.0892 21.98 34.4871C21.98 34.8849 22.138 35.2664 22.4194 35.5477C22.7007 35.829 23.0822 35.9871 23.48 35.9871H29.48Z" fill="#959595"/>
<path d="M0 29.4919C0 31.2159 0.684819 32.8692 1.90381 34.0881C3.12279 35.3071 4.77609 35.9919 6.5 35.9919H12.5C12.8978 35.9919 13.2794 35.8339 13.5607 35.5526C13.842 35.2713 14 34.8898 14 34.4919C14 34.0941 13.842 33.7126 13.5607 33.4313C13.2794 33.15 12.8978 32.9919 12.5 32.9919H6.5C5.57174 32.9919 4.6815 32.6232 4.02513 31.9668C3.36875 31.3104 3 30.4202 3 29.4919V23.4919C3 23.0941 2.84196 22.7126 2.56066 22.4313C2.27936 22.15 1.89782 21.9919 1.5 21.9919C1.10218 21.9919 0.720644 22.15 0.43934 22.4313C0.158035 22.7126 0 23.0941 0 23.4919V29.4919Z" fill="#959595"/>
<path d="M17.992 23.9959C19.1787 23.9959 20.3387 23.644 21.3254 22.9847C22.3121 22.3254 23.0812 21.3883 23.5353 20.292C23.9894 19.1956 24.1082 17.9892 23.8767 16.8253C23.6452 15.6614 23.0738 14.5923 22.2346 13.7532C21.3955 12.9141 20.3264 12.3427 19.1625 12.1111C17.9987 11.8796 16.7923 11.9984 15.6959 12.4526C14.5995 12.9067 13.6625 13.6757 13.0032 14.6624C12.3439 15.6491 11.992 16.8092 11.992 17.9959C11.992 19.5872 12.6241 21.1133 13.7494 22.2385C14.8746 23.3637 16.4007 23.9959 17.992 23.9959ZM17.992 20.9959C17.3987 20.9959 16.8186 20.8199 16.3253 20.4903C15.8319 20.1606 15.4474 19.6921 15.2204 19.1439C14.9933 18.5957 14.9339 17.9925 15.0496 17.4106C15.1654 16.8286 15.4511 16.2941 15.8707 15.8745C16.2902 15.455 16.8248 15.1693 17.4067 15.0535C17.9887 14.9377 18.5919 14.9972 19.1401 15.2242C19.6882 15.4513 20.1568 15.8358 20.4864 16.3291C20.8161 16.8225 20.992 17.4025 20.992 17.9959C20.9923 18.39 20.9149 18.7803 20.7642 19.1445C20.6136 19.5087 20.3926 19.8397 20.114 20.1185C19.8354 20.3973 19.5046 20.6184 19.1405 20.7693C18.7764 20.9202 18.3861 20.9979 17.992 20.9979V20.9959Z" fill="#959595"/>
<path d="M8.995 11.0071C9.39056 11.0071 9.77724 10.8898 10.1061 10.67C10.435 10.4503 10.6914 10.1379 10.8428 9.77245C10.9941 9.407 11.0337 9.00486 10.9566 8.6169C10.8794 8.22894 10.6889 7.87257 10.4092 7.59287C10.1295 7.31316 9.77314 7.12268 9.38518 7.04551C8.99721 6.96834 8.59508 7.00795 8.22963 7.15932C7.86418 7.3107 7.55182 7.56704 7.33206 7.89594C7.11229 8.22484 6.995 8.61152 6.995 9.00708C6.995 9.53751 7.20571 10.0462 7.58078 10.4213C7.95585 10.7964 8.46456 11.0071 8.995 11.0071Z" fill="#959595"/>
</svg>
